<?xml version="1.0" standalone="no"?><!DOCTYPE svg PUBLIC "-//W3C//DTD SVG 1.1//EN" "http://www.w3.org/Graphics/SVG/1.1/DTD/svg11.dtd"><svg t="1613646305761" class="icon" viewBox="0 0 1024 1024" version="1.1" xmlns="http://www.w3.org/2000/svg" p-id="3726" xmlns:xlink="http://www.w3.org/1999/xlink" width="16" height="16"><defs><style type="text/css"></style></defs><path d="M926.9 290.5L733.5 97.1C711 74.6 680.5 62 648.7 62H375.3c-31.8 0-62.3 12.6-84.9 35.1L97.1 290.5C74.6 313 62 343.5 62 375.3v273.4c0 31.8 12.6 62.3 35.1 84.9l193.3 193.3c22.5 22.5 53 35.1 84.9 35.1h273.4c31.8 0 62.3-12.6 84.9-35.1l193.3-193.3c22.5-22.5 35.1-53 35.1-84.9V375.3c0-31.8-12.6-62.3-35.1-84.8zM872 636.3c0 15.9-6.3 31.2-17.6 42.4L678.7 854.4c-11.3 11.3-26.5 17.6-42.4 17.6H387.7c-15.9 0-31.2-6.3-42.4-17.6L169.6 678.7c-11.3-11.3-17.6-26.5-17.6-42.4V387.7c0-15.9 6.3-31.2 17.6-42.4l175.7-175.7c11.3-11.3 26.5-17.6 42.4-17.6h248.5c15.9 0 31.2 6.3 42.4 17.6l175.7 175.7c11.3 11.3 17.6 26.5 17.6 42.4v248.6z" fill="#707070" p-id="3727" data-spm-anchor-id="a313x.7781069.0.i14" class="selected"></path><path d="M512 512m-120 0a120 120 0 1 0 240 0 120 120 0 1 0-240 0Z" fill="#b7b7b7" p-id="3728" data-spm-anchor-id="a313x.7781069.0.i12" class=""></path></svg>