<?xml version="1.0" standalone="no"?><!DOCTYPE svg PUBLIC "-//W3C//DTD SVG 1.1//EN" "http://www.w3.org/Graphics/SVG/1.1/DTD/svg11.dtd"><svg t="1613649646099" class="icon" viewBox="0 0 1024 1024" version="1.1" xmlns="http://www.w3.org/2000/svg" p-id="10314" xmlns:xlink="http://www.w3.org/1999/xlink" width="16" height="16"><defs><style type="text/css"></style></defs><path d="M512 919.466667c-78.933333 0-140.8-64-140.8-140.8 0-17.066667 14.933333-32 32-32s32 14.933333 32 32c0 42.666667 34.133333 76.8 76.8 76.8s76.8-34.133333 76.8-76.8c0-17.066667 14.933333-32 32-32s32 14.933333 32 32c0 78.933333-61.866667 140.8-140.8 140.8z" fill="#ffffff" p-id="10315"></path><path d="M814.933333 800H209.066667c-42.666667 0-78.933333-36.266667-81.066667-78.933333 0-34.133333 19.2-64 49.066667-78.933334 19.2-8.533333 27.733333-12.8 36.266666-25.6 21.333333-36.266667 19.2-83.2 14.933334-132.266666-2.133333-42.666667-6.4-87.466667 8.533333-132.266667 25.6-87.466667 91.733333-160 172.8-194.133333 32-12.8 64-19.2 98.133333-19.2h4.266667c83.2 0 166.4 40.533333 219.733333 106.666666 34.133333 40.533333 55.466667 93.866667 64 153.6 4.266667 32 2.133333 64 0 93.866667-2.133333 42.666667-4.266667 83.2 10.666667 117.333333 6.4 14.933333 19.2 27.733333 36.266667 36.266667 17.066667 8.533333 51.2 27.733333 51.2 74.666667 2.133333 42.666667-34.133333 78.933333-78.933334 78.933333zM512 202.666667h-2.133333c-25.6 0-51.2 6.4-74.666667 14.933333-64 25.6-115.2 83.2-136.533333 151.466667-10.666667 32-8.533333 70.4-4.266667 108.8 4.266667 55.466667 6.4 115.2-23.466667 168.533333-19.2 32-44.8 42.666667-64 53.333333-10.666667 4.266667-14.933333 10.666667-14.933333 19.2s8.533333 17.066667 17.066667 17.066667h608c8.533333 0 14.933333-8.533333 14.933333-17.066667 0-6.4 0-8.533333-17.066667-17.066666-27.733333-14.933333-51.2-36.266667-64-64-21.333333-46.933333-19.2-98.133333-17.066666-147.2 2.133333-29.866667 4.266667-55.466667 0-81.066667-6.4-46.933333-25.6-89.6-51.2-121.6-42.666667-55.466667-106.666667-85.333333-170.666667-85.333333z" p-id="10316" fill="#ffffff"></path><path d="M512 198.4c-17.066667 0-32-14.933333-32-32V117.333333c0-19.2 14.933333-32 32-32s32 14.933333 32 32v49.066667c0 17.066667-14.933333 32-32 32z" p-id="10317" fill="#ffffff"></path></svg>