<?xml version="1.0" standalone="no"?><!DOCTYPE svg PUBLIC "-//W3C//DTD SVG 1.1//EN" "http://www.w3.org/Graphics/SVG/1.1/DTD/svg11.dtd"><svg t="1612856532357" class="icon" viewBox="0 0 1024 1024" version="1.1" xmlns="http://www.w3.org/2000/svg" p-id="3501" xmlns:xlink="http://www.w3.org/1999/xlink" width="16" height="16"><defs><style type="text/css"></style></defs><path d="M554.666667 384a42.666667 42.666667 0 0 0-85.333334 0v128a42.666667 42.666667 0 0 0 12.501334 30.165333l85.333333 85.333334a42.666667 42.666667 0 0 0 60.330667-60.330667L554.666667 494.336V384z m-42.666667-213.333333a384 384 0 1 1 0 768 384 384 0 0 1 0-768z m0 85.333333a298.666667 298.666667 0 1 0 0 597.333333 298.666667 298.666667 0 0 0 0-597.333333z m225.834667-158.165333a42.666667 42.666667 0 0 1 60.330666 0l128 128a42.666667 42.666667 0 1 1-60.330666 60.330666l-128-128a42.666667 42.666667 0 0 1 0-60.330666z m-451.669334 0a42.666667 42.666667 0 0 1 0 60.330666l-128 128a42.666667 42.666667 0 0 1-60.330666-60.330666l128-128a42.666667 42.666667 0 0 1 60.330666 0z" p-id="3502" fill="#1296db"></path></svg>