<?xml version="1.0" standalone="no"?><!DOCTYPE svg PUBLIC "-//W3C//DTD SVG 1.1//EN" "http://www.w3.org/Graphics/SVG/1.1/DTD/svg11.dtd"><svg t="1612950759207" class="icon" viewBox="0 0 1024 1024" version="1.1" xmlns="http://www.w3.org/2000/svg" p-id="1741" xmlns:xlink="http://www.w3.org/1999/xlink" width="16" height="16"><defs><style type="text/css"></style></defs><path d="M442.627072 432.571392l377.979904 0 0-53.741568L442.627072 378.829824 442.627072 432.571392zM227.569664 432.571392l161.268736 0 0-53.741568L227.569664 378.829824 227.569664 432.571392zM442.627072 538.86976l377.979904 0 0-53.741568L442.627072 485.128192 442.627072 538.86976zM227.569664 538.86976l161.268736 0 0-53.741568L227.569664 485.128192 227.569664 538.86976zM442.627072 700.565504l377.979904 0 0-53.740544L442.627072 646.82496 442.627072 700.565504zM227.569664 700.565504l161.268736 0 0-53.740544L227.569664 646.82496 227.569664 700.565504zM442.627072 806.863872l377.979904 0L820.606976 753.12128 442.627072 753.12128 442.627072 806.863872zM227.569664 806.863872l161.268736 0L388.8384 753.12128 227.569664 753.12128 227.569664 806.863872zM926.669824 0 119.191552 0 65.451008 0l0 53.741568L65.451008 162.11968l0 53.741568 0 754.398208L65.451008 1024l53.741568 0 807.478272 0 53.740544 0 0-53.740544L980.411392 53.741568 980.411392 0 926.669824 0zM926.669824 162.11968 766.016512 162.11968l0 53.741568 160.654336 0 0 754.398208L119.191552 970.259456 119.191552 215.861248l536.98048 0L656.172032 162.11968 119.191552 162.11968 119.191552 53.741568l807.478272 0L926.669824 162.11968z" p-id="1742" fill="#2c2c2c"></path></svg>