<?xml version="1.0" standalone="no"?><!DOCTYPE svg PUBLIC "-//W3C//DTD SVG 1.1//EN" "http://www.w3.org/Graphics/SVG/1.1/DTD/svg11.dtd"><svg t="1613111874311" class="icon" viewBox="0 0 1024 1024" version="1.1" xmlns="http://www.w3.org/2000/svg" p-id="810" xmlns:xlink="http://www.w3.org/1999/xlink" width="16" height="16"><defs><style type="text/css"></style></defs><path d="M508.586667 429.696l17.066666-43.648c4.842667-12.416 11.349333-25.088 21.205334-42.24l5.205333-8.981333c19.370667-33.152 25.898667-46.613333 25.685333-50.133334C573.802667 217.536 555.178667 192 522.666667 192c-29.802667 0-62.122667 36.757333-86.186667 101.909333-22.442667 60.714667-91.818667 135.786667-140.245333 135.786667h-7.210667c-30.229333 0-54.357333 23.722667-54.357333 52.565333V736.64c0 52.48 43.477333 95.36 97.493333 95.36h273.173333c24.597333 0 46.570667-14.570667 70.485334-47.36 11.093333-15.210667 20.266667-31.189333 26.752-45.717333l107.52-253.546667a8.533333 8.533333 0 0 0 0.576-3.114667c0-28.842667-24.128-52.565333-54.357334-52.565333H508.586667z m247.722666-64c65.322667 0 118.357333 52.138667 118.357334 116.565333 0 9.045333-1.706667 17.984-5.333334 27.264l-108.074666 254.954667a323.413333 323.413333 0 0 1-33.749334 57.898667C692.693333 870.08 653.674667 896 605.333333 896H332.16C242.986667 896 170.666667 824.682667 170.666667 736.64V482.261333c0-64.426667 53.034667-116.565333 118.357333-116.565333h7.210667c14.656 0 66.026667-55.594667 80.213333-93.952C408.789333 184.106667 458.154667 128 522.666667 128c72.533333 0 113.28 55.786667 118.976 152.96 1.344 22.805333-4.48 34.986667-33.493334 84.736h148.16z" fill="#b7b7b7" p-id="811"></path></svg>