<?xml version="1.0" standalone="no"?><!DOCTYPE svg PUBLIC "-//W3C//DTD SVG 1.1//EN" "http://www.w3.org/Graphics/SVG/1.1/DTD/svg11.dtd"><svg t="1613111783269" class="icon" viewBox="0 0 1024 1024" version="1.1" xmlns="http://www.w3.org/2000/svg" p-id="1510" xmlns:xlink="http://www.w3.org/1999/xlink" width="16" height="16"><defs><style type="text/css"></style></defs><path d="M515.84 128C192 128 0 512 0 512s192 384 515.84 384C832 896 1024 512 1024 512S832 128 515.84 128zM512 768c-140.8 0-256-113.92-256-256 0-140.8 115.2-256 256-256 142.08 0 256 115.2 256 256 0 142.08-113.92 256-256 256z m128-256c0 71.04-56.96 128-128 128-71.04 0-128-56.96-128-128 0-71.04 56.96-128 128-128 71.04 0 128 56.96 128 128z" p-id="1511" fill="#b7b7b7"></path></svg>